<?xml version="1.0" standalone="no"?>
<svg viewBox="0 0 200 200" xmlns="http://www.w3.org/2000/svg">
  <path fill="#FFA400" d="M33.3,-56.1C44.6,-51.2,56.3,-45.2,62.5,-35.7C68.7,-26.1,69.5,-13.1,69,-0.3C68.6,12.5,66.8,25.1,63.3,39.2C59.7,53.3,54.3,69,43.4,70.7C32.6,72.5,16.3,60.4,1.4,58C-13.6,55.6,-27.1,63.1,-41.4,63.2C-55.6,63.4,-70.5,56.4,-80.3,44.6C-90.1,32.9,-94.7,16.4,-94.6,0.1C-94.4,-16.3,-89.5,-32.6,-79.3,-43.6C-69.1,-54.6,-53.7,-60.4,-39.6,-63.7C-25.5,-67,-12.7,-67.7,-0.9,-66.2C11,-64.7,22,-61,33.3,-56.1Z" transform="translate(100 100)" />
</svg>
